<?xml version="1.0" encoding="UTF-8" standalone="no"?>
<!-- Generator: Adobe Illustrator 19.0.0, SVG Export Plug-In . SVG Version: 6.00 Build 0)  -->

<svg
   xmlns:dc="http://purl.org/dc/elements/1.1/"
   xmlns:cc="http://creativecommons.org/ns#"
   xmlns:rdf="http://www.w3.org/1999/02/22-rdf-syntax-ns#"
   xmlns:svg="http://www.w3.org/2000/svg"
   xmlns="http://www.w3.org/2000/svg"
   xmlns:sodipodi="http://sodipodi.sourceforge.net/DTD/sodipodi-0.dtd"
   xmlns:inkscape="http://www.inkscape.org/namespaces/inkscape"
   version="1.1"
   id="Layer_1"
   x="0px"
   y="0px"
   viewBox="0 0 501.999 501.999"
   style="enable-background:new 0 0 501.999 501.999;"
   xml:space="preserve"
   sodipodi:docname="icon3.svg"
   inkscape:version="0.92.4 (5da689c313, 2019-01-14)"><metadata
   id="metadata3781"><rdf:RDF><cc:Work
       rdf:about=""><dc:format>image/svg+xml</dc:format><dc:type
         rdf:resource="http://purl.org/dc/dcmitype/StillImage" /><dc:title></dc:title></cc:Work></rdf:RDF></metadata><defs
   id="defs3779">












	<clipPath
   clipPathUnits="userSpaceOnUse"
   id="clipPath884"><g
     id="use886"
     inkscape:label="Clip"><path
       style="fill:#313440;stroke-width:0.4"
       inkscape:connector-curvature="0"
       id="path4592"
       d="m 289.47431,149.85793 c 18.73146,-4.86897 42.90305,-7.55058 68.06488,-7.55058 25.16184,0 49.33431,2.68161 68.06488,7.55058 0.74534,0.19363 1.49332,0.28647 2.22981,0.28647 3.92914,0 7.5161,-2.63917 8.55055,-6.61958 1.22896,-4.72575 -1.60649,-9.55317 -6.33312,-10.78125 -20.14166,-5.23589 -45.8941,-8.11908 -72.51388,-8.11908 -26.61979,0 -52.37223,2.88319 -72.51389,8.11908 -4.72575,1.22808 -7.5612,6.0555 -6.33312,10.78125 1.23073,4.72574 6.05815,7.56207 10.78389,6.33311 z" /><path
       style="fill:#313440;stroke-width:0.4"
       inkscape:connector-curvature="0"
       id="path4594"
       d="m 430.05308,224.17901 c -20.1399,-5.23589 -45.89233,-8.11908 -72.51389,-8.11908 -26.62155,0 -52.37399,2.88319 -72.51388,8.11908 -4.72575,1.22896 -7.5612,6.0555 -6.33224,10.78124 1.22896,4.72575 6.0555,7.5612 10.78124,6.33224 18.72881,-4.86898 42.90128,-7.55059 68.06488,-7.55059 25.1636,0 49.33608,2.68161 68.06488,7.55059 0.74622,0.19363 1.49421,0.28646 2.2307,0.28646 3.92913,0 7.5161,-2.63917 8.55055,-6.6187 1.22896,-4.72574 -1.60649,-9.55228 -6.33224,-10.78124 z" /><path
       style="fill:#313440;stroke-width:0.4"
       inkscape:connector-curvature="0"
       id="path4596"
       d="m 430.05308,315.63921 c -20.1399,-5.2359 -45.89233,-8.11909 -72.51389,-8.11909 -26.62155,0 -52.37399,2.88319 -72.51388,8.11909 -4.72575,1.22895 -7.5612,6.05549 -6.33224,10.78124 1.22896,4.72574 6.0555,7.56119 10.78124,6.33223 18.72881,-4.86898 42.90128,-7.55058 68.06488,-7.55058 25.1636,0 49.33608,2.6816 68.06488,7.55058 0.74622,0.19363 1.49421,0.28646 2.2307,0.28646 3.92913,0 7.5161,-2.63916 8.55055,-6.61869 1.22896,-4.72575 -1.60649,-9.55405 -6.33224,-10.78124 z" /></g></clipPath></defs><sodipodi:namedview
   pagecolor="#ffffff"
   bordercolor="#666666"
   borderopacity="1"
   objecttolerance="10"
   gridtolerance="10"
   guidetolerance="10"
   inkscape:pageopacity="0"
   inkscape:pageshadow="2"
   inkscape:window-width="1304"
   inkscape:window-height="745"
   id="namedview3777"
   showgrid="false"
   inkscape:zoom="1.2171339"
   inkscape:cx="267.84234"
   inkscape:cy="250.9995"
   inkscape:window-x="54"
   inkscape:window-y="-8"
   inkscape:window-maximized="1"
   inkscape:current-layer="Layer_1" />
	<!-- <rect
   width="100%"
   height="100%"
   fill="#dee2f7"
   id="rect3748" /> -->
	<path
   style="fill:#313440;stroke-width:0.4"
   inkscape:connector-curvature="0"
   id="path3750"
   d="m 357.53919,75.177895 c -42.69439,0 -87.88648,7.456864 -106.53925,23.48638 -18.65277,-16.0304 -63.84487,-23.48638 -106.53926,-23.48638 -55.57105,0 -115.380685,12.63087 -115.380685,40.359365 v 302.37698 0.0654 c 0,4.88313 3.958309,8.84144 8.841432,8.84144 0.348352,0 0.690516,-0.0256 1.028259,-0.0654 H 249.96726 c 0.046,0.005 0.0911,0.015 0.13704,0.0203 0.29442,0.0292 0.59238,0.0451 0.89475,0.0451 0.30238,0 0.60034,-0.0159 0.89476,-0.0451 0.0469,-0.004 0.0911,-0.015 0.13792,-0.0203 h 211.01758 c 0.33774,0.0389 0.6799,0.0654 1.02826,0.0654 4.88312,0 8.84143,-3.95831 8.84143,-8.84144 0,-0.0106 0,-0.0203 0,-0.0309 0,-0.0115 0,-0.023 0,-0.0345 V 115.53726 C 472.91988,87.808765 413.11025,75.177895 357.53919,75.177895 Z M 58.321263,409.07281 c 3.432244,-1.59853 7.810521,-3.27664 13.382392,-4.92114 19.322949,-5.70626 45.162035,-8.84851 72.757025,-8.84851 27.595,0 53.43408,3.14225 72.75703,8.84851 5.57187,1.6445 9.94926,3.32261 13.38239,4.92114 z M 242.15851,395.13606 C 220.29099,383.21692 181.4161,377.6203 144.46068,377.6203 c -36.95541,0 -75.830307,5.59662 -97.697821,17.51576 v -279.5988 c 0,-1.28024 4.426021,-7.76012 24.870948,-13.80854 19.330907,-5.718643 45.194753,-8.867961 72.826873,-8.867961 27.63213,0 53.49597,3.149318 72.82688,8.867961 20.44493,6.0493 24.87095,12.5283 24.87095,13.80854 z m 29.24126,13.93675 c 3.43225,-1.59853 7.81053,-3.27664 13.3824,-4.92114 19.32295,-5.70626 45.16203,-8.84851 72.75702,-8.84851 27.595,0 53.43408,3.14225 72.75703,8.84851 5.57187,1.6445 9.94927,3.32261 13.38239,4.92114 z M 455.23702,395.13606 C 433.3695,383.21692 394.49461,377.6203 357.53919,377.6203 c -36.95541,0 -75.83031,5.59662 -97.69782,17.51576 v -279.5988 c 0,-1.28024 4.42602,-7.76012 24.87095,-13.80854 19.33091,-5.718643 45.19475,-8.867961 72.82687,-8.867961 27.63213,0 53.49597,3.149318 72.82688,8.867961 20.44493,6.0493 24.87095,12.5283 24.87095,13.80854 z" /><g
   id="g875"
   style="display:inline"
   transform="translate(0,18.07525)"><path
     d="m 118.17511,143.30024 c 8.53286,-0.65868 17.37606,-0.99289 26.28557,-0.99289 25.16183,0 49.33431,2.68161 68.06488,7.55058 0.74534,0.19363 1.49332,0.28647 2.22981,0.28647 3.92913,0 7.5161,-2.63917 8.55055,-6.61958 1.22896,-4.72575 -1.60649,-9.55317 -6.33312,-10.78125 -20.14166,-5.23589 -45.8941,-8.11908 -72.51389,-8.11908 -9.3613,0 -18.66337,0.351 -27.64715,1.04506 -4.8681,0.37576 -8.51077,4.62672 -8.13501,9.49569 0.37842,4.8681 4.63557,8.51961 9.49836,8.135 z"
     id="path3752"
     inkscape:connector-curvature="0"
     style="fill:#313440;stroke-width:0.4" /><path
     d="m 74.165109,150.14528 c 0.736491,0 1.484477,-0.0928 2.229809,-0.28646 3.957425,-1.02914 8.21988,-1.97341 12.670657,-2.80981 4.799129,-0.90182 7.958172,-5.52324 7.057231,-10.32149 -0.901826,-4.79913 -5.524127,-7.95994 -10.321488,-7.05723 -4.845989,0.91067 -9.507192,1.94512 -13.85364,3.07417 -4.726629,1.22807 -7.562077,6.0555 -6.334002,10.78124 1.035332,3.97865 4.622301,6.61958 8.551433,6.61958 z"
     id="path3754"
     inkscape:connector-curvature="0"
     style="fill:#313440;stroke-width:0.4" /></g><path
   style="fill:#313440;stroke-width:0.4"
   inkscape:connector-curvature="0"
   id="path3758"
   d="m 216.97457,228.28702 c -20.1399,-5.23589 -45.89234,-8.11908 -72.51389,-8.11908 -26.62155,0 -52.373988,2.88319 -72.513886,8.11908 -4.725745,1.22896 -7.561193,6.0555 -6.332234,10.78124 1.228959,4.72575 6.056381,7.56031 10.781242,6.33224 18.728806,-4.86898 42.901278,-7.55059 68.064878,-7.55059 25.1636,0 49.33608,2.68161 68.06488,7.55059 0.74622,0.19363 1.4942,0.28646 2.2307,0.28646 3.92913,0 7.5161,-2.63917 8.55054,-6.6187 1.22896,-4.72574 -1.60648,-9.55228 -6.33223,-10.78124 z" /><path
   style="fill:#313440;stroke-width:0.4"
   inkscape:connector-curvature="0"
   id="path3762"
   d="m 216.97457,306.60158 c -20.1399,-5.2359 -45.89234,-8.11909 -72.51389,-8.11909 -26.62155,0 -52.373988,2.88319 -72.513886,8.11909 -4.725745,1.22895 -7.561193,6.05549 -6.332234,10.78124 1.228959,4.72574 6.056381,7.56119 10.781242,6.33223 18.728806,-4.86898 42.901278,-7.55058 68.064878,-7.55058 25.1636,0 49.33608,2.6816 68.06488,7.55058 0.74622,0.19363 1.4942,0.28646 2.2307,0.28646 3.92913,0 7.5161,-2.63916 8.55054,-6.61869 1.22896,-4.72575 -1.60648,-9.55405 -6.33223,-10.78124 z" /><path
   d="m 289.47431,167.93318 c 18.73146,-4.86897 42.90305,-7.55058 68.06488,-7.55058 25.16184,0 49.33431,2.68161 68.06488,7.55058 0.74534,0.19363 1.49332,0.28647 2.22981,0.28647 3.92914,0 7.5161,-2.63917 8.55055,-6.61958 1.22896,-4.72575 -1.60649,-9.55317 -6.33312,-10.78125 -20.14166,-5.23589 -45.8941,-8.11908 -72.51388,-8.11908 -26.61979,0 -52.37223,2.88319 -72.51389,8.11908 -4.72575,1.22808 -7.5612,6.0555 -6.33312,10.78125 1.23073,4.72574 6.05815,7.56207 10.78389,6.33311 z"
   id="path3764"
   inkscape:connector-curvature="0"
   style="fill:#313440;stroke-width:0.4" /><path
   d="m 430.05308,228.28702 c -20.1399,-5.23589 -45.89233,-8.11908 -72.51389,-8.11908 -26.62155,0 -52.37399,2.88319 -72.51388,8.11908 -4.72575,1.22896 -7.5612,6.0555 -6.33224,10.78124 1.22896,4.72575 6.0555,7.5612 10.78124,6.33224 18.72881,-4.86898 42.90128,-7.55059 68.06488,-7.55059 25.1636,0 49.33608,2.68161 68.06488,7.55059 0.74622,0.19363 1.49421,0.28646 2.2307,0.28646 3.92913,0 7.5161,-2.63917 8.55055,-6.6187 1.22896,-4.72574 -1.60649,-9.55228 -6.33224,-10.78124 z"
   id="path3768"
   inkscape:connector-curvature="0"
   style="fill:#313440;stroke-width:0.4" /><path
   d="m 430.05308,306.60158 c -20.1399,-5.2359 -45.89233,-8.11909 -72.51389,-8.11909 -26.62155,0 -52.37399,2.88319 -72.51388,8.11909 -4.72575,1.22895 -7.5612,6.05549 -6.33224,10.78124 1.22896,4.72574 6.0555,7.56119 10.78124,6.33223 18.72881,-4.86898 42.90128,-7.55058 68.06488,-7.55058 25.1636,0 49.33608,2.6816 68.06488,7.55058 0.74622,0.19363 1.49421,0.28646 2.2307,0.28646 3.92913,0 7.5161,-2.63916 8.55055,-6.61869 1.22896,-4.72575 -1.60649,-9.55405 -6.33224,-10.78124 z"
   id="path3772"
   inkscape:connector-curvature="0"
   style="fill:#313440;stroke-width:0.4" />
<path
   style="fill:#dee2f7;fill-opacity:0;stroke-width:0.38"
   d="m 47.691652,253.83402 0.207754,-140.28859 4.994614,-3.34852 c 9.37121,-6.28271 31.723885,-12.318131 56.62556,-15.289402 12.12491,-1.446747 57.71127,-1.446747 69.83619,0 24.90168,2.971271 47.25435,9.006692 56.62556,15.289402 l 4.99461,3.34852 0.20775,140.27927 0.20776,140.27927 -4.5756,-2.02354 c -33.8684,-14.97822 -102.21883,-19.17714 -152.914515,-9.39388 -10.488742,2.02411 -25.810067,6.56916 -31.663356,9.39288 -2.329417,1.12375 -4.352028,2.04318 -4.494692,2.04318 -0.142665,0 -0.1659,-63.12986 -0.05164,-140.28859 z m 36.908727,77.49407 c 19.517631,-4.18489 29.266961,-4.98906 60.248101,-4.96958 31.02168,0.0196 38.1446,0.621 60.169,5.08089 10.48304,2.12278 10.97808,2.15156 13.80726,0.80241 4.16967,-1.98837 5.9409,-6.33369 4.38458,-10.75657 -0.62162,-1.76659 -2.05453,-3.87389 -3.18423,-4.6829 -1.12971,-0.809 -6.49066,-2.39077 -11.91324,-3.51505 -38.87122,-8.05929 -88.76774,-8.05215 -127.348352,0.0182 -5.422575,1.1343 -10.721982,2.61891 -11.776458,3.29913 -5.14456,3.31862 -5.079836,11.94591 0.113378,15.11241 3.34763,2.04117 4.274689,2.01791 15.499961,-0.38897 z m 1.803056,-46.06118 c 19.584315,-3.96538 30.152775,-4.84829 58.034245,-4.84829 27.88146,0 38.44992,0.88291 58.03423,4.84829 13.30976,2.69492 15.42474,2.65903 18.3959,-0.31213 3.05605,-3.05604 3.7512,-5.98725 2.31489,-9.76103 -1.57518,-4.13867 -4.33419,-5.47841 -16.30325,-7.91675 -36.85682,-7.50849 -88.25703,-7.50293 -124.870934,0.0136 -12.209634,2.5065 -14.128356,3.38946 -16.017707,7.37097 -1.20179,2.53258 -1.28417,3.54286 -0.501816,6.15413 1.171272,3.90935 4.364513,6.4987 8.014358,6.4987 1.533554,0 7.338593,-0.92134 12.900084,-2.04741 z m -4.937086,-44.80194 c 20.450961,-4.85709 53.858131,-7.32196 79.371611,-5.85625 19.0094,1.09205 30.98088,2.57342 44.91239,5.55751 9.56438,2.04866 10.07902,2.07867 12.87676,0.75106 5.81087,-2.75744 7.00385,-10.22872 2.34586,-14.69136 -1.93965,-1.85831 -4.2516,-2.61373 -14.16241,-4.62752 -17.50831,-3.55756 -31.69801,-5.01492 -53.82156,-5.52777 -28.32759,-0.65667 -54.62698,1.57445 -75.034607,6.36559 -9.830233,2.30786 -12.801339,4.65385 -12.801339,10.10795 0,3.892 2.264277,7.35588 5.751216,8.79817 2.389463,0.98835 2.8768,0.94787 10.562079,-0.87738 z m 5.45201,-46.72937 c 17.321521,-3.73203 28.369501,-4.60441 57.930121,-4.57434 30.15768,0.0307 37.79069,0.67402 59.75382,5.03622 10.88448,2.16183 11.38216,2.19118 14.21806,0.83884 5.76243,-2.74791 6.6781,-11.22289 1.64068,-15.18533 -4.32952,-3.4056 -32.33564,-7.86905 -58.56432,-9.33362 -27.27255,-1.52287 -58.5894,0.70852 -82.776427,5.89799 -9.5824,2.05596 -11.604173,3.15029 -13.294605,7.19607 -1.713502,4.10099 -0.346171,8.67174 3.27473,10.94685 3.043037,1.91204 5.693265,1.78967 17.817941,-0.82268 z M 84.08924,148.45436 c 8.904247,-2.0762 10.082249,-2.72129 11.599174,-6.3518 2.637539,-6.31252 -1.458417,-12.55633 -8.209735,-12.51479 -3.945239,0.0243 -15.771074,2.55771 -18.328812,3.92657 -0.950739,0.50882 -2.373977,2.28513 -3.162752,3.94735 -2.806703,5.91468 1.383054,12.64504 7.871747,12.64504 1.729086,0 6.332756,-0.74357 10.230378,-1.65237 z m 135.75773,0.37009 c 2.03664,-1.42651 4.28613,-5.30238 4.28613,-7.38497 0,-2.52803 -2.67714,-7.01093 -4.835,-8.09626 -2.90125,-1.45922 -21.16515,-5.10294 -33.78031,-6.73931 -11.57254,-1.50112 -53.24294,-2.51683 -64.56449,-1.57375 -6.14839,0.51216 -7.40594,0.8904 -9.66185,2.90606 -2.26314,2.02211 -2.59347,2.84672 -2.59347,6.474 0,3.44299 0.38944,4.54618 2.26804,6.42478 l 2.26805,2.26805 28.54204,0.0509 c 30.57477,0.0545 41.47934,0.93141 59.76292,4.80576 11.06032,2.34372 15.87193,2.57098 18.30794,0.86474 z"
   id="path849"
   inkscape:connector-curvature="0" /><path
   style="display:inline;fill:#dee2f7;fill-opacity:0;stroke-width:0.38"
   d="m 47.691652,253.83402 0.207754,-140.28859 4.994614,-3.34852 c 9.37121,-6.28271 31.723885,-12.318131 56.62556,-15.289402 12.12491,-1.446747 57.71127,-1.446747 69.83619,0 24.90168,2.971271 47.25435,9.006692 56.62556,15.289402 l 4.99461,3.34852 0.20775,140.27927 0.20776,140.27927 -4.5756,-2.02354 c -33.8684,-14.97822 -102.21883,-19.17714 -152.914515,-9.39388 -10.488742,2.02411 -25.810067,6.56916 -31.663356,9.39288 -2.329417,1.12375 -4.352028,2.04318 -4.494692,2.04318 -0.142665,0 -0.1659,-63.12986 -0.05164,-140.28859 z m 36.908727,77.49407 c 19.517631,-4.18489 29.266961,-4.98906 60.248101,-4.96958 31.02168,0.0196 38.1446,0.621 60.169,5.08089 10.48304,2.12278 10.97808,2.15156 13.80726,0.80241 4.16967,-1.98837 5.9409,-6.33369 4.38458,-10.75657 -0.62162,-1.76659 -2.05453,-3.87389 -3.18423,-4.6829 -1.12971,-0.809 -6.49066,-2.39077 -11.91324,-3.51505 -38.87122,-8.05929 -88.76774,-8.05215 -127.348352,0.0182 -5.422575,1.1343 -10.721982,2.61891 -11.776458,3.29913 -5.14456,3.31862 -5.079836,11.94591 0.113378,15.11241 3.34763,2.04117 4.274689,2.01791 15.499961,-0.38897 z m 1.803056,-46.06118 c 19.584315,-3.96538 30.152775,-4.84829 58.034245,-4.84829 27.88146,0 38.44992,0.88291 58.03423,4.84829 13.30976,2.69492 15.42474,2.65903 18.3959,-0.31213 3.05605,-3.05604 3.7512,-5.98725 2.31489,-9.76103 -1.57518,-4.13867 -4.33419,-5.47841 -16.30325,-7.91675 -36.85682,-7.50849 -88.25703,-7.50293 -124.870934,0.0136 -12.209634,2.5065 -14.128356,3.38946 -16.017707,7.37097 -1.20179,2.53258 -1.28417,3.54286 -0.501816,6.15413 1.171272,3.90935 4.364513,6.4987 8.014358,6.4987 1.533554,0 7.338593,-0.92134 12.900084,-2.04741 z m -4.937086,-44.80194 c 20.450961,-4.85709 53.858131,-7.32196 79.371611,-5.85625 19.0094,1.09205 30.98088,2.57342 44.91239,5.55751 9.56438,2.04866 10.07902,2.07867 12.87676,0.75106 5.81087,-2.75744 7.00385,-10.22872 2.34586,-14.69136 -1.93965,-1.85831 -4.2516,-2.61373 -14.16241,-4.62752 -17.50831,-3.55756 -31.69801,-5.01492 -53.82156,-5.52777 -28.32759,-0.65667 -54.62698,1.57445 -75.034607,6.36559 -9.830233,2.30786 -12.801339,4.65385 -12.801339,10.10795 0,3.892 2.264277,7.35588 5.751216,8.79817 2.389463,0.98835 2.8768,0.94787 10.562079,-0.87738 z m 5.45201,-46.72937 c 17.321521,-3.73203 28.369501,-4.60441 57.930121,-4.57434 30.15768,0.0307 37.79069,0.67402 59.75382,5.03622 10.88448,2.16183 11.38216,2.19118 14.21806,0.83884 5.76243,-2.74791 6.6781,-11.22289 1.64068,-15.18533 -4.32952,-3.4056 -32.33564,-7.86905 -58.56432,-9.33362 -27.27255,-1.52287 -58.5894,0.70852 -82.776427,5.89799 -9.5824,2.05596 -11.604173,3.15029 -13.294605,7.19607 -1.713502,4.10099 -0.346171,8.67174 3.27473,10.94685 3.043037,1.91204 5.693265,1.78967 17.817941,-0.82268 z M 84.08924,148.45436 c 8.904247,-2.0762 10.082249,-2.72129 11.599174,-6.3518 2.637539,-6.31252 -1.458417,-12.55633 -8.209735,-12.51479 -3.945239,0.0243 -15.771074,2.55771 -18.328812,3.92657 -0.950739,0.50882 -2.373977,2.28513 -3.162752,3.94735 -2.806703,5.91468 1.383054,12.64504 7.871747,12.64504 1.729086,0 6.332756,-0.74357 10.230378,-1.65237 z m 135.75773,0.37009 c 2.03664,-1.42651 4.28613,-5.30238 4.28613,-7.38497 0,-2.52803 -2.67714,-7.01093 -4.835,-8.09626 -2.90125,-1.45922 -21.16515,-5.10294 -33.78031,-6.73931 -11.57254,-1.50112 -53.24294,-2.51683 -64.56449,-1.57375 -6.14839,0.51216 -7.40594,0.8904 -9.66185,2.90606 -2.26314,2.02211 -2.59347,2.84672 -2.59347,6.474 0,3.44299 0.38944,4.54618 2.26804,6.42478 l 2.26805,2.26805 28.54204,0.0509 c 30.57477,0.0545 41.47934,0.93141 59.76292,4.80576 11.06032,2.34372 15.87193,2.57098 18.30794,0.86474 z"
   id="path851"
   inkscape:connector-curvature="0" /><path
   style="display:inline;fill:#dee2f7;fill-opacity:1;stroke-width:0.38"
   d="m 60.634242,408.53923 c 0,-0.80377 15.750872,-5.3559 25.474271,-7.36227 15.749837,-3.24988 29.032447,-4.62539 49.702337,-5.14702 26.28683,-0.66337 47.96557,1.04883 69.01459,5.45082 7.4618,1.56049 23.41567,6.36966 23.41567,7.05847 0,0.20472 -37.71155,0.37222 -83.80343,0.37222 -46.091893,0 -83.803438,-0.1675 -83.803438,-0.37222 z"
   id="path857"
   inkscape:connector-curvature="0" /><path
   style="display:inline;fill:#dee2f7;fill-opacity:1;stroke-width:0.38"
   d="m 275.89404,407.59164 c 8.27634,-3.61346 26.6728,-7.69892 44.36653,-9.85287 14.32716,-1.74412 45.3607,-2.38331 60.69881,-1.2502 22.41971,1.65627 46.87626,6.24734 56.79031,10.66088 l 3.69721,1.64593 -84.21423,0.0259 c -76.23817,0.0234 -83.94188,-0.093 -81.33863,-1.22961 z"
   id="path859"
   inkscape:connector-curvature="0" /></svg>
