<?xml version="1.0" encoding="UTF-8" standalone="no"?>
<!-- Generator: Adobe Illustrator 19.0.0, SVG Export Plug-In . SVG Version: 6.00 Build 0)  -->

<svg
   xmlns:dc="http://purl.org/dc/elements/1.1/"
   xmlns:cc="http://creativecommons.org/ns#"
   xmlns:rdf="http://www.w3.org/1999/02/22-rdf-syntax-ns#"
   xmlns:svg="http://www.w3.org/2000/svg"
   xmlns="http://www.w3.org/2000/svg"
   xmlns:sodipodi="http://sodipodi.sourceforge.net/DTD/sodipodi-0.dtd"
   xmlns:inkscape="http://www.inkscape.org/namespaces/inkscape"
   version="1.1"
   id="Layer_1"
   x="0px"
   y="0px"
   viewBox="0 0 501.999 501.999"
   style="enable-background:new 0 0 501.999 501.999;"
   xml:space="preserve"
   sodipodi:docname="icon.svg"
   inkscape:version="0.92.4 (5da689c313, 2019-01-14)"><metadata
   id="metadata3781"><rdf:RDF><cc:Work
       rdf:about=""><dc:format>image/svg+xml</dc:format><dc:type
         rdf:resource="http://purl.org/dc/dcmitype/StillImage" /><dc:title></dc:title></cc:Work></rdf:RDF></metadata><defs
   id="defs3779" /><sodipodi:namedview
   pagecolor="#ffffff"
   bordercolor="#666666"
   borderopacity="1"
   objecttolerance="10"
   gridtolerance="10"
   guidetolerance="10"
   inkscape:pageopacity="0"
   inkscape:pageshadow="2"
   inkscape:window-width="1304"
   inkscape:window-height="745"
   id="namedview3777"
   showgrid="false"
   inkscape:zoom="1.2171339"
   inkscape:cx="235.79985"
   inkscape:cy="250.9995"
   inkscape:window-x="54"
   inkscape:window-y="-8"
   inkscape:window-maximized="1"
   inkscape:current-layer="Layer_1" />
	<!-- <rect
   width="100%"
   height="100%"
   fill="#dee2f7"
   id="rect3748" /> -->
	<g
   id="g3774"
   transform="matrix(0.8841432,0,0,0.8841432,29.079995,29.080437)"
   style="fill:#313440">
		<path
   d="m 371.5,52.138 c -48.289,0 -99.403,8.434 -120.5,26.564 C 229.903,60.571 178.789,52.138 130.5,52.138 67.647,52.138 0,66.424 0,97.786 v 342 0.074 c 0,5.523 4.477,10 10,10 0.394,0 0.781,-0.029 1.163,-0.074 h 238.669 c 0.052,0.006 0.103,0.017 0.155,0.023 0.333,0.033 0.67,0.051 1.012,0.051 0.342,0 0.679,-0.018 1.012,-0.051 0.053,-0.005 0.103,-0.017 0.156,-0.023 h 238.669 c 0.382,0.044 0.769,0.074 1.163,0.074 5.523,0 10,-4.477 10,-10 0,-0.012 0,-0.023 0,-0.035 0,-0.013 0,-0.026 0,-0.039 v -342 C 502,66.424 434.353,52.138 371.5,52.138 Z M 33.073,429.786 c 3.882,-1.808 8.834,-3.706 15.136,-5.566 21.855,-6.454 51.08,-10.008 82.291,-10.008 31.211,0 60.436,3.554 82.291,10.008 6.302,1.86 11.253,3.758 15.136,5.566 z M 241,414.023 c -24.733,-13.481 -68.702,-19.811 -110.5,-19.811 -41.798,0 -85.767,6.33 -110.5,19.811 V 97.786 c 0,-1.448 5.006,-8.777 28.13,-15.618 21.864,-6.468 51.117,-10.03 82.37,-10.03 31.253,0 60.506,3.562 82.37,10.03 23.124,6.842 28.13,14.17 28.13,15.618 z m 33.073,15.763 c 3.882,-1.808 8.834,-3.706 15.136,-5.566 21.855,-6.454 51.08,-10.008 82.291,-10.008 31.211,0 60.436,3.554 82.291,10.008 6.302,1.86 11.253,3.758 15.136,5.566 z M 482,414.023 c -24.733,-13.481 -68.702,-19.811 -110.5,-19.811 -41.798,0 -85.767,6.33 -110.5,19.811 V 97.786 c 0,-1.448 5.006,-8.777 28.13,-15.618 21.864,-6.468 51.117,-10.03 82.37,-10.03 31.253,0 60.506,3.562 82.37,10.03 23.124,6.842 28.13,14.17 28.13,15.618 z"
   id="path3750"
   inkscape:connector-curvature="0" />
		<path
   d="m 100.77,129.187 c 9.651,-0.745 19.653,-1.123 29.73,-1.123 28.459,0 55.799,3.033 76.984,8.54 0.843,0.219 1.689,0.324 2.522,0.324 4.444,0 8.501,-2.985 9.671,-7.487 1.39,-5.345 -1.817,-10.805 -7.163,-12.194 -22.781,-5.922 -51.908,-9.183 -82.016,-9.183 -10.588,0 -21.109,0.397 -31.27,1.182 -5.506,0.425 -9.626,5.233 -9.201,10.74 0.428,5.506 5.243,9.636 10.743,9.201 z"
   id="path3752"
   inkscape:connector-curvature="0" />
		<path
   d="m 50.993,136.929 c 0.833,0 1.679,-0.105 2.522,-0.324 4.476,-1.164 9.297,-2.232 14.331,-3.178 5.428,-1.02 9.001,-6.247 7.982,-11.674 -1.02,-5.428 -6.248,-9.003 -11.674,-7.982 -5.481,1.03 -10.753,2.2 -15.669,3.477 -5.346,1.389 -8.553,6.849 -7.164,12.194 1.171,4.5 5.228,7.487 9.672,7.487 z"
   id="path3754"
   inkscape:connector-curvature="0" />
		<path
   d="m 212.516,168.969 c -22.779,-5.922 -51.906,-9.183 -82.016,-9.183 -30.11,0 -59.237,3.261 -82.016,9.183 -5.345,1.39 -8.552,6.849 -7.162,12.194 1.39,5.345 6.85,8.551 12.194,7.162 21.183,-5.507 48.523,-8.54 76.984,-8.54 28.461,0 55.801,3.033 76.984,8.54 0.844,0.219 1.69,0.324 2.523,0.324 4.444,0 8.501,-2.985 9.671,-7.486 1.39,-5.345 -1.817,-10.804 -7.162,-12.194 z"
   id="path3756"
   inkscape:connector-curvature="0" />
		<path
   d="m 212.516,220.664 c -22.779,-5.922 -51.906,-9.183 -82.016,-9.183 -30.11,0 -59.237,3.261 -82.016,9.183 -5.345,1.39 -8.552,6.849 -7.162,12.194 1.39,5.345 6.85,8.551 12.194,7.162 21.183,-5.507 48.523,-8.54 76.984,-8.54 28.461,0 55.801,3.033 76.984,8.54 0.844,0.219 1.69,0.324 2.523,0.324 4.444,0 8.501,-2.985 9.671,-7.486 1.39,-5.345 -1.817,-10.804 -7.162,-12.194 z"
   id="path3758"
   inkscape:connector-curvature="0" />
		<path
   d="m 53.515,291.743 c 21.186,-5.507 48.525,-8.54 76.984,-8.54 28.459,0 55.799,3.033 76.984,8.54 0.843,0.219 1.689,0.324 2.522,0.324 4.444,0 8.501,-2.985 9.671,-7.487 1.392,-5.346 -1.815,-10.805 -7.16,-12.194 -22.781,-5.922 -51.908,-9.183 -82.016,-9.183 -30.108,0 -59.235,3.261 -82.016,9.183 -5.345,1.389 -8.552,6.849 -7.163,12.194 1.389,5.345 6.85,8.553 12.194,7.163 z"
   id="path3760"
   inkscape:connector-curvature="0" />
		<path
   d="m 212.516,324.109 c -22.779,-5.922 -51.906,-9.183 -82.016,-9.183 -30.11,0 -59.237,3.261 -82.016,9.183 -5.345,1.39 -8.552,6.849 -7.162,12.194 1.39,5.345 6.85,8.552 12.194,7.162 21.183,-5.507 48.523,-8.54 76.984,-8.54 28.461,0 55.801,3.033 76.984,8.54 0.844,0.219 1.69,0.324 2.523,0.324 4.444,0 8.501,-2.985 9.671,-7.486 1.39,-5.345 -1.817,-10.806 -7.162,-12.194 z"
   id="path3762"
   inkscape:connector-curvature="0" />
		<path
   d="m 294.516,136.604 c 21.186,-5.507 48.525,-8.54 76.984,-8.54 28.459,0 55.799,3.033 76.984,8.54 0.843,0.219 1.689,0.324 2.522,0.324 4.444,0 8.501,-2.985 9.671,-7.487 1.39,-5.345 -1.817,-10.805 -7.163,-12.194 -22.781,-5.922 -51.908,-9.183 -82.016,-9.183 -30.108,0 -59.235,3.261 -82.016,9.183 -5.345,1.389 -8.552,6.849 -7.163,12.194 1.392,5.345 6.852,8.553 12.197,7.163 z"
   id="path3764"
   inkscape:connector-curvature="0" />
		<path
   d="m 453.516,168.971 c -22.779,-5.922 -51.906,-9.183 -82.016,-9.183 -30.11,0 -59.237,3.261 -82.016,9.183 -5.345,1.39 -8.552,6.849 -7.162,12.194 1.39,5.345 6.849,8.551 12.194,7.162 21.183,-5.507 48.523,-8.54 76.984,-8.54 28.461,0 55.801,3.033 76.984,8.54 0.844,0.219 1.69,0.324 2.523,0.324 4.444,0 8.501,-2.985 9.671,-7.486 1.39,-5.345 -1.817,-10.806 -7.162,-12.194 z"
   id="path3766"
   inkscape:connector-curvature="0" />
		<path
   d="m 453.516,220.664 c -22.779,-5.922 -51.906,-9.183 -82.016,-9.183 -30.11,0 -59.237,3.261 -82.016,9.183 -5.345,1.39 -8.552,6.849 -7.162,12.194 1.39,5.345 6.849,8.552 12.194,7.162 21.183,-5.507 48.523,-8.54 76.984,-8.54 28.461,0 55.801,3.033 76.984,8.54 0.844,0.219 1.69,0.324 2.523,0.324 4.444,0 8.501,-2.985 9.671,-7.486 1.39,-5.345 -1.817,-10.804 -7.162,-12.194 z"
   id="path3768"
   inkscape:connector-curvature="0" />
		<path
   d="m 294.515,291.743 c 21.186,-5.507 48.525,-8.54 76.984,-8.54 28.459,0 55.799,3.033 76.984,8.54 0.843,0.219 1.689,0.324 2.522,0.324 4.444,0 8.501,-2.985 9.671,-7.487 1.392,-5.346 -1.815,-10.805 -7.16,-12.194 -22.781,-5.922 -51.908,-9.183 -82.016,-9.183 -30.108,0 -59.235,3.261 -82.016,9.183 -5.345,1.389 -8.552,6.849 -7.163,12.194 1.389,5.345 6.849,8.553 12.194,7.163 z"
   id="path3770"
   inkscape:connector-curvature="0" />
		<path
   d="m 453.516,324.109 c -22.779,-5.922 -51.906,-9.183 -82.016,-9.183 -30.11,0 -59.237,3.261 -82.016,9.183 -5.345,1.39 -8.552,6.849 -7.162,12.194 1.39,5.345 6.849,8.552 12.194,7.162 21.183,-5.507 48.523,-8.54 76.984,-8.54 28.461,0 55.801,3.033 76.984,8.54 0.844,0.219 1.69,0.324 2.523,0.324 4.444,0 8.501,-2.985 9.671,-7.486 1.39,-5.345 -1.817,-10.806 -7.162,-12.194 z"
   id="path3772"
   inkscape:connector-curvature="0" />
	</g>
</svg>
