<?xml version="1.0" encoding="UTF-8" standalone="no"?>
<!-- Generator: Adobe Illustrator 19.0.0, SVG Export Plug-In . SVG Version: 6.00 Build 0)  -->

<svg
   xmlns:dc="http://purl.org/dc/elements/1.1/"
   xmlns:cc="http://creativecommons.org/ns#"
   xmlns:rdf="http://www.w3.org/1999/02/22-rdf-syntax-ns#"
   xmlns:svg="http://www.w3.org/2000/svg"
   xmlns="http://www.w3.org/2000/svg"
   xmlns:sodipodi="http://sodipodi.sourceforge.net/DTD/sodipodi-0.dtd"
   xmlns:inkscape="http://www.inkscape.org/namespaces/inkscape"
   version="1.1"
   id="Layer_1"
   x="0px"
   y="0px"
   viewBox="0 0 501.999 501.999"
   style="enable-background:new 0 0 501.999 501.999;"
   xml:space="preserve"
   sodipodi:docname="icon2.svg"
   inkscape:version="0.92.4 (5da689c313, 2019-01-14)"><metadata
   id="metadata3781"><rdf:RDF><cc:Work
       rdf:about=""><dc:format>image/svg+xml</dc:format><dc:type
         rdf:resource="http://purl.org/dc/dcmitype/StillImage" /><dc:title></dc:title></cc:Work></rdf:RDF></metadata><defs
   id="defs3779" /><sodipodi:namedview
   pagecolor="#ffffff"
   bordercolor="#666666"
   borderopacity="1"
   objecttolerance="10"
   gridtolerance="10"
   guidetolerance="10"
   inkscape:pageopacity="0"
   inkscape:pageshadow="2"
   inkscape:window-width="1304"
   inkscape:window-height="745"
   id="namedview3777"
   showgrid="false"
   inkscape:zoom="1.2171339"
   inkscape:cx="235.79985"
   inkscape:cy="250.9995"
   inkscape:window-x="54"
   inkscape:window-y="-8"
   inkscape:window-maximized="1"
   inkscape:current-layer="Layer_1" />
	<!-- <rect
   width="100%"
   height="100%"
   fill="#dee2f7"
   id="rect3748" /> -->
	<g
   id="g3774"
   transform="matrix(0.8841432,0,0,0.8841432,29.079995,29.080437)"
   style="fill:#313440">
		<path
   d="m 371.5,52.138 c -48.289,0 -99.403,8.434 -120.5,26.564 C 229.903,60.571 178.789,52.138 130.5,52.138 67.647,52.138 0,66.424 0,97.786 v 342 0.074 c 0,5.523 4.477,10 10,10 0.394,0 0.781,-0.029 1.163,-0.074 h 238.669 c 0.052,0.006 0.103,0.017 0.155,0.023 0.333,0.033 0.67,0.051 1.012,0.051 0.342,0 0.679,-0.018 1.012,-0.051 0.053,-0.005 0.103,-0.017 0.156,-0.023 h 238.669 c 0.382,0.044 0.769,0.074 1.163,0.074 5.523,0 10,-4.477 10,-10 0,-0.012 0,-0.023 0,-0.035 0,-0.013 0,-0.026 0,-0.039 v -342 C 502,66.424 434.353,52.138 371.5,52.138 Z M 33.073,429.786 c 3.882,-1.808 8.834,-3.706 15.136,-5.566 21.855,-6.454 51.08,-10.008 82.291,-10.008 31.211,0 60.436,3.554 82.291,10.008 6.302,1.86 11.253,3.758 15.136,5.566 z M 241,414.023 c -24.733,-13.481 -68.702,-19.811 -110.5,-19.811 -41.798,0 -85.767,6.33 -110.5,19.811 V 97.786 c 0,-1.448 5.006,-8.777 28.13,-15.618 21.864,-6.468 51.117,-10.03 82.37,-10.03 31.253,0 60.506,3.562 82.37,10.03 23.124,6.842 28.13,14.17 28.13,15.618 z m 33.073,15.763 c 3.882,-1.808 8.834,-3.706 15.136,-5.566 21.855,-6.454 51.08,-10.008 82.291,-10.008 31.211,0 60.436,3.554 82.291,10.008 6.302,1.86 11.253,3.758 15.136,5.566 z M 482,414.023 c -24.733,-13.481 -68.702,-19.811 -110.5,-19.811 -41.798,0 -85.767,6.33 -110.5,19.811 V 97.786 c 0,-1.448 5.006,-8.777 28.13,-15.618 21.864,-6.468 51.117,-10.03 82.37,-10.03 31.253,0 60.506,3.562 82.37,10.03 23.124,6.842 28.13,14.17 28.13,15.618 z"
   id="path3750"
   inkscape:connector-curvature="0" />
		<path
   d="m 100.77,129.187 c 9.651,-0.745 19.653,-1.123 29.73,-1.123 28.459,0 55.799,3.033 76.984,8.54 0.843,0.219 1.689,0.324 2.522,0.324 4.444,0 8.501,-2.985 9.671,-7.487 1.39,-5.345 -1.817,-10.805 -7.163,-12.194 -22.781,-5.922 -51.908,-9.183 -82.016,-9.183 -10.588,0 -21.109,0.397 -31.27,1.182 -5.506,0.425 -9.626,5.233 -9.201,10.74 0.428,5.506 5.243,9.636 10.743,9.201 z"
   id="path3752"
   inkscape:connector-curvature="0" />
		<path
   d="m 50.993,136.929 c 0.833,0 1.679,-0.105 2.522,-0.324 4.476,-1.164 9.297,-2.232 14.331,-3.178 5.428,-1.02 9.001,-6.247 7.982,-11.674 -1.02,-5.428 -6.248,-9.003 -11.674,-7.982 -5.481,1.03 -10.753,2.2 -15.669,3.477 -5.346,1.389 -8.553,6.849 -7.164,12.194 1.171,4.5 5.228,7.487 9.672,7.487 z"
   id="path3754"
   inkscape:connector-curvature="0" />
		<path
   d="m 212.516,168.969 c -22.779,-5.922 -51.906,-9.183 -82.016,-9.183 -30.11,0 -59.237,3.261 -82.016,9.183 -5.345,1.39 -8.552,6.849 -7.162,12.194 1.39,5.345 6.85,8.551 12.194,7.162 21.183,-5.507 48.523,-8.54 76.984,-8.54 28.461,0 55.801,3.033 76.984,8.54 0.844,0.219 1.69,0.324 2.523,0.324 4.444,0 8.501,-2.985 9.671,-7.486 1.39,-5.345 -1.817,-10.804 -7.162,-12.194 z"
   id="path3756"
   inkscape:connector-curvature="0" />
		<path
   d="m 212.516,220.664 c -22.779,-5.922 -51.906,-9.183 -82.016,-9.183 -30.11,0 -59.237,3.261 -82.016,9.183 -5.345,1.39 -8.552,6.849 -7.162,12.194 1.39,5.345 6.85,8.551 12.194,7.162 21.183,-5.507 48.523,-8.54 76.984,-8.54 28.461,0 55.801,3.033 76.984,8.54 0.844,0.219 1.69,0.324 2.523,0.324 4.444,0 8.501,-2.985 9.671,-7.486 1.39,-5.345 -1.817,-10.804 -7.162,-12.194 z"
   id="path3758"
   inkscape:connector-curvature="0" />
		<path
   d="m 53.515,291.743 c 21.186,-5.507 48.525,-8.54 76.984,-8.54 28.459,0 55.799,3.033 76.984,8.54 0.843,0.219 1.689,0.324 2.522,0.324 4.444,0 8.501,-2.985 9.671,-7.487 1.392,-5.346 -1.815,-10.805 -7.16,-12.194 -22.781,-5.922 -51.908,-9.183 -82.016,-9.183 -30.108,0 -59.235,3.261 -82.016,9.183 -5.345,1.389 -8.552,6.849 -7.163,12.194 1.389,5.345 6.85,8.553 12.194,7.163 z"
   id="path3760"
   inkscape:connector-curvature="0" />
		<path
   d="m 212.516,324.109 c -22.779,-5.922 -51.906,-9.183 -82.016,-9.183 -30.11,0 -59.237,3.261 -82.016,9.183 -5.345,1.39 -8.552,6.849 -7.162,12.194 1.39,5.345 6.85,8.552 12.194,7.162 21.183,-5.507 48.523,-8.54 76.984,-8.54 28.461,0 55.801,3.033 76.984,8.54 0.844,0.219 1.69,0.324 2.523,0.324 4.444,0 8.501,-2.985 9.671,-7.486 1.39,-5.345 -1.817,-10.806 -7.162,-12.194 z"
   id="path3762"
   inkscape:connector-curvature="0" />
		<path
   d="m 294.516,136.604 c 21.186,-5.507 48.525,-8.54 76.984,-8.54 28.459,0 55.799,3.033 76.984,8.54 0.843,0.219 1.689,0.324 2.522,0.324 4.444,0 8.501,-2.985 9.671,-7.487 1.39,-5.345 -1.817,-10.805 -7.163,-12.194 -22.781,-5.922 -51.908,-9.183 -82.016,-9.183 -30.108,0 -59.235,3.261 -82.016,9.183 -5.345,1.389 -8.552,6.849 -7.163,12.194 1.392,5.345 6.852,8.553 12.197,7.163 z"
   id="path3764"
   inkscape:connector-curvature="0" />
		<path
   d="m 453.516,168.971 c -22.779,-5.922 -51.906,-9.183 -82.016,-9.183 -30.11,0 -59.237,3.261 -82.016,9.183 -5.345,1.39 -8.552,6.849 -7.162,12.194 1.39,5.345 6.849,8.551 12.194,7.162 21.183,-5.507 48.523,-8.54 76.984,-8.54 28.461,0 55.801,3.033 76.984,8.54 0.844,0.219 1.69,0.324 2.523,0.324 4.444,0 8.501,-2.985 9.671,-7.486 1.39,-5.345 -1.817,-10.806 -7.162,-12.194 z"
   id="path3766"
   inkscape:connector-curvature="0" />
		<path
   d="m 453.516,220.664 c -22.779,-5.922 -51.906,-9.183 -82.016,-9.183 -30.11,0 -59.237,3.261 -82.016,9.183 -5.345,1.39 -8.552,6.849 -7.162,12.194 1.39,5.345 6.849,8.552 12.194,7.162 21.183,-5.507 48.523,-8.54 76.984,-8.54 28.461,0 55.801,3.033 76.984,8.54 0.844,0.219 1.69,0.324 2.523,0.324 4.444,0 8.501,-2.985 9.671,-7.486 1.39,-5.345 -1.817,-10.804 -7.162,-12.194 z"
   id="path3768"
   inkscape:connector-curvature="0" />
		<path
   d="m 294.515,291.743 c 21.186,-5.507 48.525,-8.54 76.984,-8.54 28.459,0 55.799,3.033 76.984,8.54 0.843,0.219 1.689,0.324 2.522,0.324 4.444,0 8.501,-2.985 9.671,-7.487 1.392,-5.346 -1.815,-10.805 -7.16,-12.194 -22.781,-5.922 -51.908,-9.183 -82.016,-9.183 -30.108,0 -59.235,3.261 -82.016,9.183 -5.345,1.389 -8.552,6.849 -7.163,12.194 1.389,5.345 6.849,8.553 12.194,7.163 z"
   id="path3770"
   inkscape:connector-curvature="0" />
		<path
   d="m 453.516,324.109 c -22.779,-5.922 -51.906,-9.183 -82.016,-9.183 -30.11,0 -59.237,3.261 -82.016,9.183 -5.345,1.39 -8.552,6.849 -7.162,12.194 1.39,5.345 6.849,8.552 12.194,7.162 21.183,-5.507 48.523,-8.54 76.984,-8.54 28.461,0 55.801,3.033 76.984,8.54 0.844,0.219 1.69,0.324 2.523,0.324 4.444,0 8.501,-2.985 9.671,-7.486 1.39,-5.345 -1.817,-10.806 -7.162,-12.194 z"
   id="path3772"
   inkscape:connector-curvature="0" />
	</g>
<path
   style="fill:#dee2f7;fill-opacity:0;stroke-width:0.82160228"
   d="m 47.691652,253.83402 0.207754,-140.28859 4.994614,-3.34852 c 9.37121,-6.28271 31.723885,-12.318131 56.62556,-15.289402 12.12491,-1.446747 57.71127,-1.446747 69.83619,0 24.90168,2.971271 47.25435,9.006692 56.62556,15.289402 l 4.99461,3.34852 0.20775,140.27927 0.20776,140.27927 -4.5756,-2.02354 c -33.8684,-14.97822 -102.21883,-19.17714 -152.914515,-9.39388 -10.488742,2.02411 -25.810067,6.56916 -31.663356,9.39288 -2.329417,1.12375 -4.352028,2.04318 -4.494692,2.04318 -0.142665,0 -0.1659,-63.12986 -0.05164,-140.28859 z m 36.908727,77.49407 c 19.517631,-4.18489 29.266961,-4.98906 60.248101,-4.96958 31.02168,0.0196 38.1446,0.621 60.169,5.08089 10.48304,2.12278 10.97808,2.15156 13.80726,0.80241 4.16967,-1.98837 5.9409,-6.33369 4.38458,-10.75657 -0.62162,-1.76659 -2.05453,-3.87389 -3.18423,-4.6829 -1.12971,-0.809 -6.49066,-2.39077 -11.91324,-3.51505 -38.87122,-8.05929 -88.76774,-8.05215 -127.348352,0.0182 -5.422575,1.1343 -10.721982,2.61891 -11.776458,3.29913 -5.14456,3.31862 -5.079836,11.94591 0.113378,15.11241 3.34763,2.04117 4.274689,2.01791 15.499961,-0.38897 z m 1.803056,-46.06118 c 19.584315,-3.96538 30.152775,-4.84829 58.034245,-4.84829 27.88146,0 38.44992,0.88291 58.03423,4.84829 13.30976,2.69492 15.42474,2.65903 18.3959,-0.31213 3.05605,-3.05604 3.7512,-5.98725 2.31489,-9.76103 -1.57518,-4.13867 -4.33419,-5.47841 -16.30325,-7.91675 -36.85682,-7.50849 -88.25703,-7.50293 -124.870934,0.0136 -12.209634,2.5065 -14.128356,3.38946 -16.017707,7.37097 -1.20179,2.53258 -1.28417,3.54286 -0.501816,6.15413 1.171272,3.90935 4.364513,6.4987 8.014358,6.4987 1.533554,0 7.338593,-0.92134 12.900084,-2.04741 z m -4.937086,-44.80194 c 20.450961,-4.85709 53.858131,-7.32196 79.371611,-5.85625 19.0094,1.09205 30.98088,2.57342 44.91239,5.55751 9.56438,2.04866 10.07902,2.07867 12.87676,0.75106 5.81087,-2.75744 7.00385,-10.22872 2.34586,-14.69136 -1.93965,-1.85831 -4.2516,-2.61373 -14.16241,-4.62752 -17.50831,-3.55756 -31.69801,-5.01492 -53.82156,-5.52777 -28.32759,-0.65667 -54.62698,1.57445 -75.034607,6.36559 -9.830233,2.30786 -12.801339,4.65385 -12.801339,10.10795 0,3.892 2.264277,7.35588 5.751216,8.79817 2.389463,0.98835 2.8768,0.94787 10.562079,-0.87738 z m 5.45201,-46.72937 c 17.321521,-3.73203 28.369501,-4.60441 57.930121,-4.57434 30.15768,0.0307 37.79069,0.67402 59.75382,5.03622 10.88448,2.16183 11.38216,2.19118 14.21806,0.83884 5.76243,-2.74791 6.6781,-11.22289 1.64068,-15.18533 -4.32952,-3.4056 -32.33564,-7.86905 -58.56432,-9.33362 -27.27255,-1.52287 -58.5894,0.70852 -82.776427,5.89799 -9.5824,2.05596 -11.604173,3.15029 -13.294605,7.19607 -1.713502,4.10099 -0.346171,8.67174 3.27473,10.94685 3.043037,1.91204 5.693265,1.78967 17.817941,-0.82268 z M 84.08924,148.45436 c 8.904247,-2.0762 10.082249,-2.72129 11.599174,-6.3518 2.637539,-6.31252 -1.458417,-12.55633 -8.209735,-12.51479 -3.945239,0.0243 -15.771074,2.55771 -18.328812,3.92657 -0.950739,0.50882 -2.373977,2.28513 -3.162752,3.94735 -2.806703,5.91468 1.383054,12.64504 7.871747,12.64504 1.729086,0 6.332756,-0.74357 10.230378,-1.65237 z m 135.75773,0.37009 c 2.03664,-1.42651 4.28613,-5.30238 4.28613,-7.38497 0,-2.52803 -2.67714,-7.01093 -4.835,-8.09626 -2.90125,-1.45922 -21.16515,-5.10294 -33.78031,-6.73931 -11.57254,-1.50112 -53.24294,-2.51683 -64.56449,-1.57375 -6.14839,0.51216 -7.40594,0.8904 -9.66185,2.90606 -2.26314,2.02211 -2.59347,2.84672 -2.59347,6.474 0,3.44299 0.38944,4.54618 2.26804,6.42478 l 2.26805,2.26805 28.54204,0.0509 c 30.57477,0.0545 41.47934,0.93141 59.76292,4.80576 11.06032,2.34372 15.87193,2.57098 18.30794,0.86474 z"
   id="path849"
   inkscape:connector-curvature="0" /><path
   style="fill:#dee2f7;fill-opacity:0;stroke-width:0.82160228"
   d="m 47.691652,253.83402 0.207754,-140.28859 4.994614,-3.34852 c 9.37121,-6.28271 31.723885,-12.318131 56.62556,-15.289402 12.12491,-1.446747 57.71127,-1.446747 69.83619,0 24.90168,2.971271 47.25435,9.006692 56.62556,15.289402 l 4.99461,3.34852 0.20775,140.27927 0.20776,140.27927 -4.5756,-2.02354 c -33.8684,-14.97822 -102.21883,-19.17714 -152.914515,-9.39388 -10.488742,2.02411 -25.810067,6.56916 -31.663356,9.39288 -2.329417,1.12375 -4.352028,2.04318 -4.494692,2.04318 -0.142665,0 -0.1659,-63.12986 -0.05164,-140.28859 z m 36.908727,77.49407 c 19.517631,-4.18489 29.266961,-4.98906 60.248101,-4.96958 31.02168,0.0196 38.1446,0.621 60.169,5.08089 10.48304,2.12278 10.97808,2.15156 13.80726,0.80241 4.16967,-1.98837 5.9409,-6.33369 4.38458,-10.75657 -0.62162,-1.76659 -2.05453,-3.87389 -3.18423,-4.6829 -1.12971,-0.809 -6.49066,-2.39077 -11.91324,-3.51505 -38.87122,-8.05929 -88.76774,-8.05215 -127.348352,0.0182 -5.422575,1.1343 -10.721982,2.61891 -11.776458,3.29913 -5.14456,3.31862 -5.079836,11.94591 0.113378,15.11241 3.34763,2.04117 4.274689,2.01791 15.499961,-0.38897 z m 1.803056,-46.06118 c 19.584315,-3.96538 30.152775,-4.84829 58.034245,-4.84829 27.88146,0 38.44992,0.88291 58.03423,4.84829 13.30976,2.69492 15.42474,2.65903 18.3959,-0.31213 3.05605,-3.05604 3.7512,-5.98725 2.31489,-9.76103 -1.57518,-4.13867 -4.33419,-5.47841 -16.30325,-7.91675 -36.85682,-7.50849 -88.25703,-7.50293 -124.870934,0.0136 -12.209634,2.5065 -14.128356,3.38946 -16.017707,7.37097 -1.20179,2.53258 -1.28417,3.54286 -0.501816,6.15413 1.171272,3.90935 4.364513,6.4987 8.014358,6.4987 1.533554,0 7.338593,-0.92134 12.900084,-2.04741 z m -4.937086,-44.80194 c 20.450961,-4.85709 53.858131,-7.32196 79.371611,-5.85625 19.0094,1.09205 30.98088,2.57342 44.91239,5.55751 9.56438,2.04866 10.07902,2.07867 12.87676,0.75106 5.81087,-2.75744 7.00385,-10.22872 2.34586,-14.69136 -1.93965,-1.85831 -4.2516,-2.61373 -14.16241,-4.62752 -17.50831,-3.55756 -31.69801,-5.01492 -53.82156,-5.52777 -28.32759,-0.65667 -54.62698,1.57445 -75.034607,6.36559 -9.830233,2.30786 -12.801339,4.65385 -12.801339,10.10795 0,3.892 2.264277,7.35588 5.751216,8.79817 2.389463,0.98835 2.8768,0.94787 10.562079,-0.87738 z m 5.45201,-46.72937 c 17.321521,-3.73203 28.369501,-4.60441 57.930121,-4.57434 30.15768,0.0307 37.79069,0.67402 59.75382,5.03622 10.88448,2.16183 11.38216,2.19118 14.21806,0.83884 5.76243,-2.74791 6.6781,-11.22289 1.64068,-15.18533 -4.32952,-3.4056 -32.33564,-7.86905 -58.56432,-9.33362 -27.27255,-1.52287 -58.5894,0.70852 -82.776427,5.89799 -9.5824,2.05596 -11.604173,3.15029 -13.294605,7.19607 -1.713502,4.10099 -0.346171,8.67174 3.27473,10.94685 3.043037,1.91204 5.693265,1.78967 17.817941,-0.82268 z M 84.08924,148.45436 c 8.904247,-2.0762 10.082249,-2.72129 11.599174,-6.3518 2.637539,-6.31252 -1.458417,-12.55633 -8.209735,-12.51479 -3.945239,0.0243 -15.771074,2.55771 -18.328812,3.92657 -0.950739,0.50882 -2.373977,2.28513 -3.162752,3.94735 -2.806703,5.91468 1.383054,12.64504 7.871747,12.64504 1.729086,0 6.332756,-0.74357 10.230378,-1.65237 z m 135.75773,0.37009 c 2.03664,-1.42651 4.28613,-5.30238 4.28613,-7.38497 0,-2.52803 -2.67714,-7.01093 -4.835,-8.09626 -2.90125,-1.45922 -21.16515,-5.10294 -33.78031,-6.73931 -11.57254,-1.50112 -53.24294,-2.51683 -64.56449,-1.57375 -6.14839,0.51216 -7.40594,0.8904 -9.66185,2.90606 -2.26314,2.02211 -2.59347,2.84672 -2.59347,6.474 0,3.44299 0.38944,4.54618 2.26804,6.42478 l 2.26805,2.26805 28.54204,0.0509 c 30.57477,0.0545 41.47934,0.93141 59.76292,4.80576 11.06032,2.34372 15.87193,2.57098 18.30794,0.86474 z"
   id="path851"
   inkscape:connector-curvature="0" /><path
   style="fill:#dee2f7;fill-opacity:1;stroke-width:0.82160228"
   d="M 260.2836,254.6114 V 115.10018 l 2.67021,-2.5859 c 7.19821,-6.97093 29.3672,-13.7152 56.61663,-17.223962 16.01361,-2.061985 60.79028,-2.036493 76.27754,0.04343 27.98464,3.758304 48.01748,9.835122 56.24942,17.062862 l 2.90594,2.55145 v 139.58727 c 0,76.77301 -0.10365,139.58728 -0.23034,139.58728 -0.12669,0 -3.27446,-1.28384 -6.99504,-2.85299 -34.59398,-14.5899 -102.62588,-18.24837 -152.45184,-8.19823 -11.67027,2.35395 -22.06589,5.4419 -29.19955,8.67352 -2.88676,1.30774 -5.38237,2.3777 -5.54581,2.3777 -0.16344,0 -0.29716,-62.78004 -0.29716,-139.51121 z m 39.43691,76.34718 c 18.17491,-3.87284 26.79867,-4.5578 57.51216,-4.56809 30.80202,-0.0104 39.86874,0.69734 58.03614,4.52964 4.45656,0.94009 9.84983,1.91171 11.98505,2.15915 3.61281,0.41869 4.08314,0.24895 6.77821,-2.44612 2.39425,-2.39424 2.89602,-3.49389 2.89602,-6.34674 0,-5.26327 -3.53821,-8.38542 -11.50243,-10.14983 -39.51148,-8.75351 -89.45374,-9.22894 -129.81316,-1.23576 -14.41796,2.85547 -17.25365,4.80104 -17.25365,11.83775 0,2.33549 0.6404,3.63896 2.89602,5.89458 2.69657,2.69658 3.16338,2.86477 6.77822,2.44231 2.13521,-0.24954 7.39455,-1.20214 11.68742,-2.11689 z m -0.54022,-45.688 c 15.61121,-3.16091 29.64928,-4.58554 50.24716,-5.09922 25.91716,-0.64634 51.95765,1.52381 70.24699,5.85421 8.55558,2.02571 11.20553,1.74997 14.4602,-1.5047 2.95609,-2.95609 3.53511,-5.82969 1.99233,-9.88753 -1.20403,-3.16683 -5.00495,-5.02027 -14.25628,-6.95174 -20.43327,-4.26602 -38.33928,-5.91511 -64.22722,-5.91511 -26.55091,0 -45.56777,1.81319 -65.72818,6.26693 -7.71366,1.70406 -9.36862,2.36178 -11.29704,4.48966 -3.30497,3.64685 -3.19205,8.80258 0.26861,12.26323 3.14876,3.14876 4.90441,3.19524 18.29343,0.48427 z m -4.1753,-44.84555 c 36.53387,-8.18718 86.5239,-8.30229 123.78511,-0.28503 7.74383,1.66619 9.8749,1.858 12.18223,1.09652 7.33263,-2.41999 7.83731,-13.8102 0.74324,-16.7743 -1.45122,-0.60635 -7.57705,-2.06539 -13.61296,-3.24229 -32.34767,-6.30729 -74.75215,-7.09549 -109.34089,-2.03239 -25.03038,3.66393 -30.40287,6.00432 -30.40287,13.24421 0,4.21852 1.69374,6.97026 5.24043,8.51386 3.27994,1.42751 2.56763,1.46002 11.40571,-0.52058 z m 5.01314,-46.71248 c 17.91698,-3.77949 27.33218,-4.52906 57.21454,-4.55505 30.49485,-0.0265 40.06033,0.76454 59.97697,4.96013 12.53168,2.6399 13.53772,2.59267 16.925,-0.79462 2.2511,-2.2511 2.79345,-3.43522 2.79345,-6.09897 0,-4.34998 -3.02209,-8.00345 -7.6598,-9.26009 -32.54459,-8.81843 -87.01112,-10.36774 -126.47551,-3.59762 -16.12722,2.76662 -21.55686,4.60245 -23.24027,7.85781 -2.1322,4.12322 -1.55089,7.94819 1.70236,11.20144 2.69506,2.69507 3.1654,2.8648 6.77822,2.44612 2.13521,-0.24745 7.52848,-1.21906 11.98504,-2.15915 z m -0.69916,-45.62426 c 18.76185,-3.84465 31.61381,-4.92745 58.3245,-4.91394 26.06281,0.0132 39.99028,1.14741 56.23765,4.57987 15.39539,3.25247 18.90429,2.94997 21.75475,-1.87548 3.24487,-5.49312 0.14036,-11.87854 -6.71976,-13.82133 -15.72599,-4.45362 -44.26306,-7.42343 -71.22119,-7.41187 -27.36336,0.0117 -45.62234,1.72724 -65.77963,6.18029 -7.71366,1.70407 -9.36862,2.36178 -11.29704,4.48967 -5.01096,5.5293 -1.45471,14.79123 5.67932,14.79123 1.74429,0 7.60392,-0.9083 13.0214,-2.01844 z"
   id="path853"
   inkscape:connector-curvature="0" /><path
   style="fill:#dee2f7;fill-opacity:1;stroke-width:0.82160228"
   d="m 47.691652,253.83402 0.207754,-140.28859 4.994614,-3.34852 c 9.37121,-6.28271 31.723885,-12.318131 56.62556,-15.289402 12.12491,-1.446747 57.71127,-1.446747 69.83619,0 24.90168,2.971271 47.25435,9.006692 56.62556,15.289402 l 4.99461,3.34852 0.20775,140.27927 0.20776,140.27927 -4.5756,-2.02354 c -33.8684,-14.97822 -102.21883,-19.17714 -152.914515,-9.39388 -10.488742,2.02411 -25.810067,6.56916 -31.663356,9.39288 -2.329417,1.12375 -4.352028,2.04318 -4.494692,2.04318 -0.142665,0 -0.1659,-63.12986 -0.05164,-140.28859 z m 36.908727,77.49407 c 19.517631,-4.18489 29.266961,-4.98906 60.248101,-4.96958 31.02168,0.0196 38.1446,0.621 60.169,5.08089 10.48304,2.12278 10.97808,2.15156 13.80726,0.80241 4.16967,-1.98837 5.9409,-6.33369 4.38458,-10.75657 -0.62162,-1.76659 -2.05453,-3.87389 -3.18423,-4.6829 -1.12971,-0.809 -6.49066,-2.39077 -11.91324,-3.51505 -38.87122,-8.05929 -88.76774,-8.05215 -127.348352,0.0182 -5.422575,1.1343 -10.721982,2.61891 -11.776458,3.29913 -5.14456,3.31862 -5.079836,11.94591 0.113378,15.11241 3.34763,2.04117 4.274689,2.01791 15.499961,-0.38897 z m 1.803056,-46.06118 c 19.584315,-3.96538 30.152775,-4.84829 58.034245,-4.84829 27.88146,0 38.44992,0.88291 58.03423,4.84829 13.30976,2.69492 15.42474,2.65903 18.3959,-0.31213 3.05605,-3.05604 3.7512,-5.98725 2.31489,-9.76103 -1.57518,-4.13867 -4.33419,-5.47841 -16.30325,-7.91675 -36.85682,-7.50849 -88.25703,-7.50293 -124.870934,0.0136 -12.209634,2.5065 -14.128356,3.38946 -16.017707,7.37097 -1.20179,2.53258 -1.28417,3.54286 -0.501816,6.15413 1.171272,3.90935 4.364513,6.4987 8.014358,6.4987 1.533554,0 7.338593,-0.92134 12.900084,-2.04741 z m -4.937086,-44.80194 c 20.450961,-4.85709 53.858131,-7.32196 79.371611,-5.85625 19.0094,1.09205 30.98088,2.57342 44.91239,5.55751 9.56438,2.04866 10.07902,2.07867 12.87676,0.75106 5.81087,-2.75744 7.00385,-10.22872 2.34586,-14.69136 -1.93965,-1.85831 -4.2516,-2.61373 -14.16241,-4.62752 -17.50831,-3.55756 -31.69801,-5.01492 -53.82156,-5.52777 -28.32759,-0.65667 -54.62698,1.57445 -75.034607,6.36559 -9.830233,2.30786 -12.801339,4.65385 -12.801339,10.10795 0,3.892 2.264277,7.35588 5.751216,8.79817 2.389463,0.98835 2.8768,0.94787 10.562079,-0.87738 z m 5.45201,-46.72937 c 17.321521,-3.73203 28.369501,-4.60441 57.930121,-4.57434 30.15768,0.0307 37.79069,0.67402 59.75382,5.03622 10.88448,2.16183 11.38216,2.19118 14.21806,0.83884 5.76243,-2.74791 6.6781,-11.22289 1.64068,-15.18533 -4.32952,-3.4056 -32.33564,-7.86905 -58.56432,-9.33362 -27.27255,-1.52287 -58.5894,0.70852 -82.776427,5.89799 -9.5824,2.05596 -11.604173,3.15029 -13.294605,7.19607 -1.713502,4.10099 -0.346171,8.67174 3.27473,10.94685 3.043037,1.91204 5.693265,1.78967 17.817941,-0.82268 z M 84.08924,148.45436 c 8.904247,-2.0762 10.082249,-2.72129 11.599174,-6.3518 2.637539,-6.31252 -1.458417,-12.55633 -8.209735,-12.51479 -3.945239,0.0243 -15.771074,2.55771 -18.328812,3.92657 -0.950739,0.50882 -2.373977,2.28513 -3.162752,3.94735 -2.806703,5.91468 1.383054,12.64504 7.871747,12.64504 1.729086,0 6.332756,-0.74357 10.230378,-1.65237 z m 135.75773,0.37009 c 2.03664,-1.42651 4.28613,-5.30238 4.28613,-7.38497 0,-2.52803 -2.67714,-7.01093 -4.835,-8.09626 -2.90125,-1.45922 -21.16515,-5.10294 -33.78031,-6.73931 -11.57254,-1.50112 -53.24294,-2.51683 -64.56449,-1.57375 -6.14839,0.51216 -7.40594,0.8904 -9.66185,2.90606 -2.26314,2.02211 -2.59347,2.84672 -2.59347,6.474 0,3.44299 0.38944,4.54618 2.26804,6.42478 l 2.26805,2.26805 28.54204,0.0509 c 30.57477,0.0545 41.47934,0.93141 59.76292,4.80576 11.06032,2.34372 15.87193,2.57098 18.30794,0.86474 z"
   id="path855"
   inkscape:connector-curvature="0" /><path
   style="fill:#dee2f7;fill-opacity:1;stroke-width:0.82160228"
   d="m 60.634242,408.53923 c 0,-0.80377 15.750872,-5.3559 25.474271,-7.36227 15.749837,-3.24988 29.032447,-4.62539 49.702337,-5.14702 26.28683,-0.66337 47.96557,1.04883 69.01459,5.45082 7.4618,1.56049 23.41567,6.36966 23.41567,7.05847 0,0.20472 -37.71155,0.37222 -83.80343,0.37222 -46.091893,0 -83.803438,-0.1675 -83.803438,-0.37222 z"
   id="path857"
   inkscape:connector-curvature="0" /><path
   style="fill:#dee2f7;fill-opacity:1;stroke-width:0.82160228"
   d="m 275.89404,407.59164 c 8.27634,-3.61346 26.6728,-7.69892 44.36653,-9.85287 14.32716,-1.74412 45.3607,-2.38331 60.69881,-1.2502 22.41971,1.65627 46.87626,6.24734 56.79031,10.66088 l 3.69721,1.64593 -84.21423,0.0259 c -76.23817,0.0234 -83.94188,-0.093 -81.33863,-1.22961 z"
   id="path859"
   inkscape:connector-curvature="0" /></svg>